<svg width="386px" height="495px" viewBox="0 0 386 495" version="1.1" xmlns="http://www.w3.org/2000/svg" xmlns:xlink="http://www.w3.org/1999/xlink">
    <!-- Generator: Sketch 46.2 (44496) - http://www.bohemiancoding.com/sketch -->
    <desc>Created with Sketch.</desc>
    <defs></defs>
    <g id="Logo" stroke="none" stroke-width="1" fill="none" fill-rule="evenodd">
        <path d="M73.0380859,64.6221789 C73.0380859,64.6221789 71.5722656,73.0619576 71.5722656,88.8848743 C71.5722656,92.106138 72.0608724,97.4996927 73.0380859,105.065538 C58.4983724,112.773221 50.5423177,118.305773 49.1699219,121.663195 C47.1113281,126.699327 43,118.052843 46.0849609,142.481554 C47.0722542,150.299579 48.797402,159.971113 49.1699219,167.89171 C49.9614019,184.720327 48.2921934,198.108192 46.0849609,200.387804 C43.9208984,202.62283 40.8925781,207.918403 37,216.274523 L37,218.927843 C42.7402761,224.799613 47.9678152,228.061332 52.6826172,228.712999 C57.3974192,229.364667 67.2639556,228.189211 82.2822266,225.186632 C85.7563586,224.616116 88.3950305,224.616116 90.1982422,225.186632 C91.7391881,225.67417 96.5077309,229.690119 97.3300781,230.338976 C99.5958888,232.126768 101.719261,236.042458 103.700195,242.086046 C109.68737,237.690254 113.68151,235.612129 115.682617,235.851671 C117.1406,236.026198 125.627267,231.005661 130.444336,228.712999 C131.640632,228.143628 139.638353,224.881909 154.4375,218.927843 C155.755208,212.135525 154.132487,209.059353 149.569336,209.699327 C145.006185,210.339301 140.519857,208.568142 136.110352,204.385851 C143.372721,198.752387 146.135091,194.576281 144.397461,191.857531 C142.659831,189.138781 142.659831,185.960395 144.397461,182.322374 C137.898763,186.664171 133.247721,189.14171 130.444336,189.754991 C126.239258,190.674913 113.274414,187.445421 112.371094,182.322374 C111.790071,179.027192 109.971945,169.279161 112.371094,162.060656 C113.258312,159.391213 116.099783,156.489032 120.895508,153.354113 L122.896484,142.481554 C127.223307,133.223741 131.62793,127.439562 136.110352,125.129015 C142.833984,121.663195 157.912109,140.046984 157.885742,147.679796 C157.881095,149.025002 177.937071,146.963726 177.743164,147.679796 C176.836827,151.026772 207.557617,139.806749 206.301758,137.700304 C205.045898,135.593859 199.013672,111.698351 208.850586,109.278429 C218.6875,106.858507 220.255859,119.629991 222.899414,119.135851 C224.038566,118.922917 226.677678,125.427519 231.509766,130.824327 C235.764047,135.575801 241.095752,139.461544 247.504883,142.481554 C249.020508,151.977648 249.399414,157.397244 248.641602,158.740343 C247.504883,160.754991 243.729492,171.473741 233.314453,167.89171 C226.371094,165.503689 224.419271,164.309679 227.458984,164.309679 L229.092773,175.584093 C233.520945,181.734206 235.976674,186.457839 236.459961,189.754991 C236.943248,193.052144 235.894746,197.929097 233.314453,204.385851 C232.111328,212.311632 231.509766,216.274523 231.509766,216.274523 C231.509766,216.274523 228.210286,217.656684 221.611328,220.421007 L222.899414,232.708116 C222.158461,236.092027 221.729099,238.600165 221.611328,240.232531 C221.493557,241.864896 221.493557,245.30793 221.611328,250.561632 C211.018229,258.139757 201.058594,261.646919 191.732422,261.083116 C177.743164,260.237413 177.166992,256.70714 175.925781,254.542101 C175.098307,253.098741 169.084961,245.820747 157.885742,232.708116 L157.885742,227.356554 L126.628906,242.086046 L144.397461,261.083116 C154.264444,264.469805 161.739705,266.858803 166.823242,268.250109 C171.90678,269.641415 178.746949,271.170386 187.34375,272.837023 C200.055188,272.177456 207.224133,271.258511 208.850586,270.080187 C219.530924,261.508572 226.27832,253.660916 229.092773,246.537218 C233.314453,235.851671 269.354492,190.010851 275.4375,186.921007 C279.492839,184.861111 282.404297,178.518012 284.171875,167.89171 C276.539714,134.239366 262.406901,107.903754 241.773438,88.8848743 C210.823242,60.3565539 222.084961,58.0245227 201.569336,44.4346789 C191.476742,37.7492002 159.61149,24.1734874 130.444336,30.7540149 C100.322233,37.5499925 73.0380859,64.6221789 73.0380859,64.6221789 Z" id="Path-10" fill="#FAF5E5"></path>
        <path d="M157.074397,145.831651 C163.372209,146.585022 168.326097,145.73165 172.34264,145.831651 C175.839995,145.918725 179.207965,145.918725 182.44655,145.831651 C197.246132,142.722918 205.556367,139.366433 207.377254,135.762194 C210.108585,130.355837 227.973104,155.171213 229.057574,164.193118 C230.142043,173.215022 229.355904,178.768386 236.772829,185.006412 C241.717445,189.165096 240.980019,194.366192 234.560551,200.609701 C235.250607,206.477639 235.250607,210.317637 234.560551,212.129694 C233.525467,214.847779 229.830611,221.925697 224.030312,220.167783 C220.163445,218.99584 213.918339,218.043551 205.294992,217.310915 L205.294992,218.416037 C195.710808,222.183388 188.09466,223.889901 182.44655,223.535577 C173.974383,223.00409 161.694479,223.385486 157.074397,227.326915 C153.994343,229.954534 152.454315,224.888794 152.454315,212.129694 L135,205.86494 L145.047469,194.112614 L142.66083,185.006412 L142.66083,181.5 L147.116629,177.803075 L147.116629,164.193118 C150.007067,160.357187 151.786296,157.403343 152.454315,155.331585 C153.309266,152.680088 154.48283,151.634852 155.961707,149.765884 C156.592586,148.968596 154.690217,145.546445 157.074397,145.831651 Z" id="Path-11" fill="#F6F6F6"></path>
        <g id="Black" transform="translate(9.000000, 0.000000)" fill="#161718">
            <path d="M232.608398,0.505859375 C243.605143,4.50260417 249.71582,9.36425781 250.94043,15.0908203 C252.777344,23.6806641 256.727539,36.4208984 257.381836,39.7578125 C257.818034,41.9824219 257.818034,47.9121094 257.381836,57.546875 C257.381836,64.3496094 257.381836,68.6149089 257.381836,70.3427734 C257.381836,72.9345703 255.125977,82.3457031 253.835938,83.7744141 C252.975911,84.726888 245.900065,85.6158854 232.608398,86.4414062 L192.53418,45.8144531 L200.867188,38.5146484 L205.011719,38.5146484 C203.024089,37.2373047 203.024089,33.6559245 205.011719,27.7705078 C206.999349,21.8850911 216.198242,12.796875 232.608398,0.505859375 Z" id="Path"></path>
            <path d="M64.0615234,65.3701172 L58.4140625,67.1542969 C54.1588542,65.9101562 50.9804687,62.4029948 48.8789062,56.6328125 C46.7773438,50.8626302 40.3007813,43.90625 29.4492188,35.7636719 C20.2584635,35.8776042 15.2399089,38.1285807 14.3935547,42.5166016 C13.5472005,46.9046224 12.766276,53.6041667 12.0507813,62.6152344 C9.12825521,72.1614583 7.94726563,79.7490234 8.5078125,85.3779297 C9.34863281,93.8212891 5.6328125,107.901367 17.5410156,117.036133 C25.4798177,123.125977 33.0358073,124.67806 40.2089844,121.692383 L64.0615234,104.829102 L64.0615234,65.3701172 Z" id="Path-2"></path>
            <path d="M150.666992,147.394531 C147.374732,141.563352 144.886126,137.519406 143.201172,135.262695 C139.307172,130.04734 135.229085,126.200115 131.847656,125.597656 C126.271484,124.604167 122.637044,126.77832 120.944336,132.120117 C118.366211,135.023112 116.795247,137.292969 116.231445,138.929688 C115.385742,141.384766 113.399414,143.894531 113.893555,148.657227 C114.222982,151.832357 111.858724,154.379557 106.800781,156.298828 C102.83138,161.45638 101.414063,165.956055 102.548828,169.797852 C103.258113,172.199165 102.186915,182.204263 106.800781,186.743164 C108.645937,188.55834 113.360455,189.487376 120.944336,189.530273 C132.963867,185.657227 139.09375,181.598633 139.333984,177.354492 C139.574219,173.110352 139.574219,168.924479 139.333984,164.796875 C143.421875,160.091146 145.897786,156.583008 146.761719,154.272461 C147.625651,151.961914 148.927409,149.669271 150.666992,147.394531 Z" id="Path-3"></path>
            <path d="M201.417969,108.847656 C197.197917,108.739583 195.010417,112.610677 194.855469,120.460938 C194.700521,128.311198 195.794271,134.345703 198.136719,138.564453 C205.045573,142.049479 209.749674,145.297201 212.249023,148.307617 C214.748372,151.318034 216.650065,156.058919 217.954102,162.530273 C219.151367,167.253581 223.097656,169.172201 229.792969,168.286133 C236.488281,167.400065 239.835938,161.966797 239.835938,151.986328 C239.491536,145.10269 237.415365,140.66417 233.607422,138.670768 C229.799479,136.677365 222.680013,129.258789 212.249023,116.415039 C211.196289,114.572591 209.984049,112.625326 208.612305,110.573242 C207.24056,108.521159 204.842448,107.945964 201.417969,108.847656 Z" id="Path-4"></path>
            <path d="M193.358398,187.972656 C199.27832,184.909505 206.005534,184.427734 213.540039,186.527344 C221.074544,188.626953 214.347331,196.731445 193.358398,210.84082 C176.18457,205.266241 167.492839,201.000526 167.283203,198.043675 C167.073568,195.086824 167.552409,192.729818 168.719727,190.972656 L193.358398,187.972656 Z" id="Path-5"></path>
            <path d="M157.030273,224.867187 L151.151367,225.918945 C148.639648,225.896159 148.011719,227.313477 149.267578,230.170898 C151.151367,234.457031 163.007812,254.317383 169.0625,256.677734 C175.117188,259.038086 181.792969,263.764648 198.200195,259.038086 C209.138346,255.887044 214.036458,252.436849 212.894531,248.6875 C214.410807,234.970052 214.410807,226.653646 212.894531,223.738281 C211.378255,220.822917 209.772461,219.950846 208.077148,221.12207 C204.737695,221.710682 203.141992,222.582752 203.290039,223.738281 C203.543283,225.714882 202.919758,230.23417 202.170898,232.401367 C198.200195,243.892578 209.928232,236.163011 210.014648,237.341797 C210.373473,242.236461 209.653409,244.628862 210.014648,245.166016 C210.664388,246.132161 208.049805,247.801107 202.170898,250.172852 C188.926758,254.99056 181.490234,256.669922 179.861328,255.210937 C179.150885,254.574606 176.7675,253.251722 174.928711,250.172852 C173.135059,247.169558 171.932748,242.466889 167.5625,237.341797 C167.058433,236.750666 168.970046,233.29522 167.5625,232.401367 C166.736325,231.87671 165.814124,229.715903 164.795898,225.918945 L157.030273,224.867187 Z" id="Path-6"></path>
            <path d="M27.7041016,216.748047 C33.2187899,223.693707 37.9990633,227.499697 42.0449219,228.166016 C58.6134873,230.894718 74.0976563,224.388672 74.0976563,224.388672 C74.0976563,224.388672 82.7302229,223.508903 90.6464844,230.839355 C92.582362,232.631977 94.4606172,237.32908 96.28125,244.930664 L102.279297,251.920898 L119.286133,244.930664 C135.742513,259.100586 150.181641,267.320638 162.603516,269.59082 C181.236328,272.996094 198.509766,273.344727 206.575195,266.185547 C210.302526,262.877027 221.031763,240.907037 236.235352,221.348613 C253.930231,198.585307 276.046357,177.644614 274.770508,170.762695 C273.189128,162.232747 287.101563,179.09472 316.507813,221.348613 L316.507813,234.131836 L330.313477,234.131836 C345.605143,239.555013 355.644206,246.582357 360.430664,255.213867 C367.610352,268.161133 371.289063,293.926758 370.542969,299.961914 C369.796875,305.99707 362.202148,368.765625 371.289063,376.897461 C377.347005,382.318685 377.688151,385.941406 372.3125,387.765625 C360.007813,380.902344 353.236328,378.000977 351.998047,379.061523 C350.759766,380.12207 343.531576,385.12793 330.313477,394.079102 L324.484375,395.893555 L340.824219,347.03418 L338.995117,345.24707 L326.795898,372.213867 L323.279297,314.737305 C321.084635,311.877279 318.827474,310.246419 316.507813,309.844727 C313.02832,309.242188 309.583008,314.079102 310.055664,324.205078 C310.370768,330.955729 311.244141,346.958659 312.675781,372.213867 L308.240234,398.5625 C283.35668,390.89455 267.645092,383.003925 261.105469,374.890625 C246.433353,356.687853 247.462873,325.153745 244.549805,309.844727 C239.689128,284.300456 236.575846,282.414388 235.209961,304.186523 C214.379232,331.969727 199.671875,341.966471 191.087891,334.176758 C185.218797,328.850727 175.793233,360.105694 165.792969,357.283203 C153.854044,353.913541 140.799387,315.980652 127.93457,301.208008 C112.174154,283.110352 112.729167,292.12207 129.599609,328.243164 C141.638021,358.560872 144.370117,380.506185 137.795898,394.079102 C127.93457,414.438477 92.0605469,445.475586 63.9638672,446.780273 C51.5767541,447.355477 34.5427541,448.126377 20.8769531,433.104492 C16.2110323,427.975563 10.3803032,415.571917 3.38476563,395.893555 C10.3893229,365.255534 12.3098958,344.683268 9.14648438,334.176758 C5.98307292,323.670247 4.56835938,314.022135 4.90234375,305.232422 L46.1572266,282.473633 L47.6386719,277.334961 C48.0058594,273.235352 46.141276,271.673828 42.0449219,272.650391 C37.9485677,273.626953 24.1891276,279.938477 0.766601563,291.584961 C-0.849934896,262.94043 0.528645833,247.388997 4.90234375,244.930664 C9.27604167,242.472331 16.8766276,233.078125 27.7041016,216.748047 Z" id="Path-7"></path>
        </g>
        <path d="M209.844727,243.116211 L217.498047,236.905273 L217.498047,246.623047 C210.299242,248.470949 204.905687,249.870688 201.317383,250.822266 C197.729079,251.773843 193.462151,252.935952 188.516602,254.308594 C185.516602,247.436198 184.037435,243.329753 184.079102,241.989258 C184.120768,240.648763 184.141602,238.954102 184.141602,236.905273 L178,229.360352 L180.727539,228 L186.788086,236.905273 L188.516602,244.912109 C192.615673,246.908789 195.693147,247.820573 197.749023,247.647461 C199.8049,247.474349 203.836801,245.963933 209.844727,243.116211 Z" id="Path-12" fill="#FAF5E5"></path>
        <path d="M164,223.832031 C167.779483,222.882477 170.621605,222.374665 172.526367,222.308594 C179.722327,222.058985 186.077936,222.935947 189.914062,222.308594 C195.273316,221.432151 200.560751,219.66262 205.776367,217 L213.395573,217.7702 L223.030273,218.744141 L223.030273,222.308594 C219.385699,219.785156 216.868772,219.154297 215.479492,220.416016 C214.090213,221.677734 212.811241,223.617839 211.642578,226.236328 L211.642578,236.992188 L215.479492,236.992188 C214.040776,239.693406 212.761805,241.509487 211.642578,242.44043 C210.523352,243.371372 208.046464,244.679315 204.211914,246.364258 C200.173532,247.273986 197.449249,247.652567 196.039062,247.5 C194.628876,247.347433 192.58721,246.453227 189.914062,244.817383 C189.041667,243.232747 188.353516,241.077474 187.849609,238.351562 C187.345703,235.625651 186.205078,233.597275 184.427734,232.266434 L181.09375,227.338867 L175.720703,231.201172 L172.526367,226.236328 L164,223.832031 Z" id="Path-15" fill="#E6B9B9"></path>
        <path d="M177.538086,231 L176,236.370117 L185.160156,252.12793 C185.816406,255.123372 187.169922,256.621094 189.220703,256.621094 C191.271484,256.621094 201.026367,253.810872 218.485352,248.19043 C216.992367,247.858978 215.337093,247.858978 213.519531,248.19043 C208.610833,249.085584 200.655454,251.463666 200.213867,252.12793 C199.527018,253.161133 195.86263,253.677734 189.220703,253.677734 C186.513672,249.903646 185.160156,245.004883 185.160156,238.981445 C185.160156,236.038438 183.944486,236.041481 182.731445,234.704102 C181.884989,233.770883 180.15387,232.536182 177.538086,231 Z" id="Path-16" stroke="#979797" fill="#E6B9B9"></path>
        <path d="M202.560661,237.158203 C204.358187,235.901693 206.882926,233.848958 210.13488,231 L210.13488,239.25 C203.287874,239.111979 200.763135,238.414714 202.560661,237.158203 Z" id="Path-13" fill="#FAF5E5"></path>
        <polygon id="Path-14" fill="#FAF5E5" points="204.226562 224 202 228.410156 202 232.828125 204.226562 232.828125 207.957031 228.414062"></polygon>
        <path d="M331.835938,353.923828 C332.070979,345.673819 332.070979,335.594392 331.835938,323.685547 L333.192383,314.389648 L325.682617,308 L319.724609,314.389648 L320.791016,353.923828 L323.678711,367.285156 L317.713867,396.536133 L323.678711,380.831055 L322.65332,416.115234 L296,449.018555 L323.678711,422.551758 L322.65332,455.880859 L299.192383,469.538086 L322.65332,459.367188 L322.65332,494.126953 L329.915039,490.483398 L329.915039,401.063477 L350.097656,346.295898 C339.942823,365.885186 333.855583,376.210707 331.835938,377.272461 C328.221609,379.172561 331.708071,358.411961 331.835938,353.923828 Z" id="Path-20" fill="#A2C499"></path>
        <path d="M119.509766,233 L126.44043,240.924805 L113.375977,249.022461 C110.201571,248.048142 108.05053,247.158819 106.922852,246.354492 C105.795173,245.550166 104.82089,244.210322 104,242.334961 C106.439457,240.021183 108.568364,238.317081 110.386719,237.222656 C112.205074,236.128231 115.24609,234.720679 119.509766,233 Z" id="Path-21" fill="#A2C499"></path>
        <path d="M120,233.477539 L126.558594,242.09668 L155.791992,228.259766 C153.994765,227.434298 152.831354,226.39491 152.301758,225.141602 C151.772162,223.888293 151.772162,222.174426 152.301758,220 C143.975351,222.754682 137.796314,224.973107 133.764648,226.655273 C129.732983,228.33744 125.144766,230.611528 120,233.477539 Z" id="Path-22" fill="#CAE7B9"></path>
        <path d="M36.6757812,292.450973 C20.0760311,300.826996 11.7326066,305.152842 11.6455078,305.428513 C11.2013797,306.834191 6.99604994,306.415651 6.66503906,306.641403 C5.05319215,307.740697 3.35320919,305.902353 2.77441406,305.428513 C1.96487769,304.765772 1.040073,301.642725 0,296.059372 L50.2431641,273.283005 C54.7177255,271.040569 57.1640146,270.450074 57.5820313,271.51152 C58.0000479,272.572967 56.9928865,276.817759 54.5605469,284.245895 L36.6757812,292.450973 Z" id="Path-23" fill="#A2C499"></path>
        <polygon id="Path-24" fill="#A2C499" points="328.94043 147 340.12207 147 336.104492 234.53418 325 234.53418"></polygon>
    </g>
</svg>